<svg width="84" height="81" viewBox="0 0 84 81" fill="none" xmlns="http://www.w3.org/2000/svg">
<path d="M82.6765 50.2691C82.6765 71.0889 64.5046 80.989 42.0766 80.989C19.6486 80.989 1.47656 71.0889 1.47656 50.2691C1.47656 29.3236 7.07656 0 12.6766 0C16.0506 0 21.2166 8.97861 23.8486 17.5662C23.8486 17.5803 23.8626 17.5942 23.8626 17.6081C24.6886 17.3847 25.5985 17.1614 26.5926 16.9378C31.6819 15.8573 36.8734 15.3283 42.0766 15.36C47.2799 15.3283 52.4713 15.8573 57.5605 16.9378C58.5546 17.1614 59.4646 17.3847 60.2905 17.6081C62.9226 9.00655 68.1025 0 71.4766 0C77.0766 0 82.6765 29.3236 82.6765 50.2691Z" fill="#FAE2E2"/>
<path d="M64.4766 52.6909C69.3694 52.6909 73.3359 48.9179 73.3359 44.2636C73.3359 39.6093 69.3694 35.8364 64.4766 35.8364C59.5837 35.8364 55.6172 39.6093 55.6172 44.2636C55.6172 48.9179 59.5837 52.6909 64.4766 52.6909Z" fill="#F3D55B"/>
<path d="M64.4763 49.7892C66.0228 49.7892 67.2764 47.2885 67.2764 44.2036C67.2764 41.1189 66.0228 38.6182 64.4763 38.6182C62.9299 38.6182 61.6763 41.1189 61.6763 44.2036C61.6763 47.2885 62.9299 49.7892 64.4763 49.7892Z" fill="#35495E"/>
<path d="M65.8765 44.2911C66.6497 44.2911 67.2766 43.666 67.2766 42.8948C67.2766 42.1236 66.6497 41.4985 65.8765 41.4985C65.1034 41.4985 64.4766 42.1236 64.4766 42.8948C64.4766 43.666 65.1034 44.2911 65.8765 44.2911Z" fill="white"/>
<path d="M21.8203 52.6909C26.7131 52.6909 30.6797 48.9179 30.6797 44.2636C30.6797 39.6093 26.7131 35.8364 21.8203 35.8364C16.9275 35.8364 12.9609 39.6093 12.9609 44.2636C12.9609 48.9179 16.9275 52.6909 21.8203 52.6909Z" fill="#F3D55B"/>
<path d="M21.8201 49.7892C23.3665 49.7892 24.6201 47.2885 24.6201 44.2036C24.6201 41.1189 23.3665 38.6182 21.8201 38.6182C20.2736 38.6182 19.02 41.1189 19.02 44.2036C19.02 47.2885 20.2736 49.7892 21.8201 49.7892Z" fill="#35495E"/>
<path d="M23.2203 44.2911C23.9935 44.2911 24.6204 43.666 24.6204 42.8948C24.6204 42.1236 23.9935 41.4985 23.2203 41.4985C22.4472 41.4985 21.8203 42.1236 21.8203 42.8948C21.8203 43.666 22.4472 44.2911 23.2203 44.2911Z" fill="white"/>
<path d="M83.9956 62.463C83.9938 62.4445 83.9939 62.4258 83.9913 62.4075C83.9902 62.3995 83.9872 62.3919 83.9861 62.3839C83.9641 62.2604 83.9188 62.1412 83.8479 62.0342C83.8456 62.031 83.8428 62.0278 83.8407 62.0247C83.8174 61.9904 83.792 61.9568 83.7638 61.9254C83.7613 61.9226 83.7585 61.9207 83.7562 61.918C83.5075 61.6484 83.1228 61.5494 82.7741 61.6669L82.7709 61.668L82.7105 61.6885C82.7079 61.6894 82.7051 61.6903 82.7024 61.6911C82.6457 61.7101 82.586 61.7297 82.5177 61.7516L82.4924 61.7598C82.4229 61.7822 82.3489 61.8055 82.2862 61.8248L82.2767 61.8276C82.2752 61.8279 82.2739 61.8285 82.2726 61.8289L82.2596 61.8325L81.7053 61.9932L81.4493 62.0612C81.3658 62.083 81.2799 62.1044 81.198 62.1242L81.1942 62.1252C81.1934 62.1254 81.1929 62.1255 81.1924 62.1257L81.1583 62.1337L81.1473 62.1363C81.0743 62.154 81.0083 62.1696 80.9437 62.1841C80.9373 62.1856 80.9306 62.1872 80.9238 62.1887L80.8886 62.1967L80.842 62.2074C80.7685 62.2236 80.7069 62.237 80.6469 62.2497L80.5406 62.272C80.4778 62.2849 80.4143 62.2974 80.3509 62.3098L80.2515 62.3293C80.251 62.3294 80.2504 62.3294 80.25 62.3294L80.2468 62.3299C80.2123 62.3365 80.1737 62.3433 80.1372 62.3497C80.095 62.3576 80.0533 62.3653 80.01 62.373L79.9573 62.3824C79.8591 62.3993 79.7593 62.4157 79.6655 62.4304L79.6632 62.4307C79.6614 62.4309 79.6596 62.4312 79.6581 62.4315L79.5662 62.4453C79.5546 62.4469 79.5426 62.4486 79.5311 62.4504C79.4716 62.4592 79.412 62.4682 79.3549 62.476L79.2845 62.4855L79.2328 62.4926C79.1894 62.4983 79.1436 62.5039 79.0983 62.5096C79.0768 62.5124 79.055 62.5152 79.0335 62.5178L78.9413 62.5287L78.909 62.5327C78.8401 62.5405 78.7654 62.5484 78.69 62.5562L78.633 62.562L78.5914 62.5662C78.5899 62.5664 78.5884 62.5664 78.5873 62.5665L78.5845 62.5667C78.5413 62.5708 78.4941 62.5746 78.449 62.5783C78.3891 62.5837 78.3282 62.5896 78.2706 62.594L78.2673 62.5942C78.2665 62.5942 78.2662 62.5944 78.2659 62.5944L78.2449 62.5958L78.2068 62.5986C78.1156 62.6053 78.024 62.6115 77.9368 62.6168L77.932 62.6171L77.8131 62.6235C77.7502 62.6268 77.6857 62.6295 77.6203 62.6323C77.6116 62.6326 77.6019 62.6333 77.5934 62.6336H77.5919C77.5904 62.6336 77.5888 62.6338 77.5873 62.6338L77.5128 62.6364L77.4611 62.6382C77.46 62.6382 77.4588 62.6384 77.4579 62.6384H77.4575C77.386 62.6407 77.3104 62.6425 77.2329 62.6439L77.1322 62.6456L77.1094 62.6459C77.1094 62.6459 77.1091 62.6459 77.1089 62.6459L77.1041 62.6461C77.0584 62.6466 77.0072 62.6466 76.9561 62.6469C76.9476 62.6469 76.9389 62.647 76.9306 62.647H76.9291C76.9288 62.647 76.9288 62.647 76.9283 62.647H76.921L76.8114 62.6469L76.7845 62.647H76.7814H76.7798H76.7757L76.7524 62.6469C76.6548 62.6459 76.5506 62.6436 76.4462 62.6405C76.4354 62.6403 76.4236 62.6403 76.4129 62.64H76.4118C76.4092 62.6398 76.4072 62.6398 76.4047 62.6398L76.3265 62.6367L76.2989 62.6358C76.2138 62.6326 76.1288 62.629 76.0487 62.625L76.0476 62.6248C76.0466 62.6248 76.0458 62.6248 76.0449 62.6248L75.9063 62.6168C75.8789 62.6151 75.8515 62.613 75.824 62.6112C75.7746 62.6081 75.7249 62.6048 75.677 62.6014L75.6363 62.5983L75.5285 62.5899C75.4622 62.5844 75.3913 62.5777 75.3208 62.5708C75.3081 62.5696 75.2957 62.5685 75.283 62.5672L75.16 62.5551C75.1592 62.5549 75.1585 62.5549 75.1577 62.5549L75.1544 62.5548C75.1526 62.5546 75.1503 62.5543 75.1483 62.5539C75.0301 62.5415 74.9113 62.5276 74.8014 62.5135L74.7925 62.5124C74.7909 62.5122 74.7889 62.512 74.7877 62.5119L74.7512 62.5066L74.7302 62.5037C74.6242 62.4896 74.5188 62.4747 74.4207 62.4597L74.417 62.4592C74.4153 62.459 74.4138 62.4589 74.4125 62.4587L74.2796 62.4374C74.1966 62.4238 74.113 62.4099 74.0291 62.395L73.877 62.3671C73.8112 62.3546 73.7423 62.3409 73.6741 62.327C73.6615 62.3244 73.6486 62.3222 73.636 62.3196L73.4902 62.2893C73.4893 62.2893 73.4887 62.2892 73.4879 62.289L73.4849 62.2885C73.4282 62.2764 73.3671 62.2622 73.3071 62.2484C73.2705 62.2399 73.2352 62.2327 73.1975 62.2237L73.102 62.2018C73.1017 62.2018 73.1017 62.2016 73.1012 62.2016L73.0925 62.1997C73.0155 62.1812 72.9337 62.1604 72.8511 62.1391C72.8083 62.128 72.7653 62.117 72.7238 62.1059L72.7048 62.1007L72.5988 62.0714C72.578 62.0656 72.557 62.0594 72.5361 62.0535C72.4654 62.0339 72.3944 62.0143 72.3283 61.9948L72.1985 61.9555L72.169 61.9467C72.1603 61.9439 72.1508 61.941 72.1419 61.9382C72.0635 61.914 71.9918 61.8914 71.9247 61.8696C71.9229 61.8691 71.9211 61.8685 71.9194 61.868L71.8532 61.846L71.7682 61.8182C71.7664 61.8177 71.7649 61.8171 71.7636 61.8166L71.7613 61.8158C71.6794 61.7883 71.5921 61.7577 71.5035 61.7264L71.4555 61.7094L71.3664 61.6777C71.3661 61.6775 71.3656 61.6773 71.3651 61.6772L71.358 61.6747C71.2901 61.6498 71.2197 61.6235 71.1485 61.5965C71.0912 61.5746 71.0348 61.553 70.9802 61.5312L70.9336 61.5121C70.8041 61.4602 70.6877 61.4119 70.579 61.3656L70.4266 61.2988C70.3403 61.261 70.2537 61.2223 70.1776 61.1872L70.1722 61.1846C70.1702 61.1836 70.1684 61.183 70.1666 61.182L69.9051 61.0575L69.8847 61.0478V61.0477L69.8844 61.0475L69.6442 60.888C68.0851 60.11 66.1318 58.894 64.6006 57.1543C61.0733 53.6811 57.5668 52.1742 54.6706 51.6013C54.6702 51.6011 54.6697 51.6011 54.6694 51.6011C54.5444 51.5764 54.4204 51.5535 54.2976 51.5322C54.2926 51.5312 54.2876 51.5306 54.2827 51.5298C54.1648 51.5093 54.0474 51.4905 53.9318 51.473C53.921 51.4713 53.9106 51.47 53.9 51.4686C53.7899 51.4522 53.6808 51.437 53.573 51.4231C53.5564 51.4211 53.54 51.4193 53.5234 51.4173C53.4222 51.4047 53.3211 51.3928 53.2217 51.3823C53.1978 51.3797 53.1745 51.3779 53.1507 51.3754C53.059 51.3661 52.9679 51.3573 52.878 51.3499C52.847 51.3473 52.8168 51.3455 52.7858 51.343C52.7044 51.3367 52.6226 51.3304 52.5423 51.3254C52.5013 51.3228 52.4615 51.3213 52.4209 51.319C52.3522 51.3152 52.2828 51.3111 52.215 51.3084C52.1575 51.3059 52.1008 51.3048 52.0439 51.3031C51.9947 51.3017 51.945 51.2995 51.8966 51.2987C51.7914 51.2967 51.6881 51.2956 51.586 51.2956C47.1043 51.2956 43.6208 53.1836 41.9998 54.8004C40.3787 53.1835 36.8954 51.2956 32.4135 51.2956C32.3116 51.2956 32.2081 51.2967 32.1031 51.2987C32.0545 51.2997 32.005 51.3017 31.9558 51.3031C31.8987 51.3048 31.8424 51.3061 31.7847 51.3084C31.7167 51.3111 31.6475 51.3152 31.5788 51.319C31.5381 51.3213 31.4982 51.3228 31.4574 51.3254C31.3771 51.3304 31.2954 51.3367 31.2139 51.343C31.1829 51.3455 31.1527 51.3473 31.1217 51.3499C31.0319 51.3573 30.9406 51.3663 30.849 51.3754C30.8252 51.3779 30.8019 51.3797 30.778 51.3823C30.6786 51.3926 30.5777 51.4047 30.4763 51.4173C30.4595 51.4193 30.4431 51.4211 30.4265 51.4231C30.3186 51.4368 30.2097 51.4522 30.0996 51.4686C30.0889 51.4702 30.0786 51.4715 30.0677 51.473C29.9521 51.4903 29.8348 51.5093 29.7168 51.5298C29.7121 51.5306 29.707 51.5312 29.7019 51.5322C29.5792 51.5535 29.4553 51.5766 29.3301 51.6011C29.3298 51.6013 29.3293 51.6013 29.329 51.6013C26.4328 52.1742 22.9264 53.6811 19.3989 57.1543C17.8677 58.894 15.9145 60.11 14.3554 60.888L14.1152 61.0475L14.1148 61.0477V61.0478L14.0947 61.0575L13.8331 61.182C13.8312 61.183 13.8292 61.1836 13.8276 61.1846L13.8222 61.1872C13.7459 61.2223 13.6591 61.261 13.5731 61.2988L13.4207 61.3656C13.3121 61.4119 13.1956 61.46 13.0662 61.5121L13.0196 61.5312C12.9649 61.553 12.908 61.5746 12.8512 61.5965C12.78 61.6235 12.7096 61.6498 12.6417 61.6747L12.6347 61.6772C12.6342 61.6773 12.6337 61.6775 12.6333 61.6777L12.5441 61.7094L12.4962 61.7264C12.4078 61.7577 12.3202 61.7883 12.2385 61.8158L12.2362 61.8166C12.2347 61.8171 12.2332 61.8177 12.2316 61.8182L12.1466 61.846L12.0803 61.868C12.0785 61.8685 12.0767 61.8691 12.075 61.8696C12.0079 61.8915 11.9362 61.914 11.8578 61.9382C11.8486 61.941 11.8393 61.9441 11.8308 61.9467L11.8011 61.9555L11.6715 61.9948C11.6055 62.0143 11.5343 62.0339 11.4636 62.0535C11.4427 62.0594 11.4217 62.0656 11.4009 62.0714L11.2949 62.1007L11.2759 62.1059C11.2344 62.117 11.1916 62.128 11.1486 62.1391C11.0661 62.1604 10.9842 62.1812 10.9072 62.1997L10.8984 62.2016C10.8982 62.2018 10.8982 62.2018 10.8979 62.2018L10.8024 62.2237C10.7647 62.2326 10.7294 62.2401 10.6928 62.2484C10.6328 62.2622 10.5716 62.2764 10.515 62.2885L10.512 62.289C10.5112 62.2892 10.5105 62.2893 10.5097 62.2893L10.3639 62.3196C10.3512 62.3222 10.3384 62.3244 10.3258 62.327C10.2576 62.3409 10.1887 62.3546 10.1229 62.3671L9.97078 62.395C9.88694 62.4099 9.80343 62.424 9.72026 62.4374L9.58736 62.4587C9.58589 62.4589 9.58441 62.459 9.58277 62.4592L9.57916 62.4597C9.48105 62.4747 9.37556 62.4898 9.26974 62.5037L9.24874 62.5066L9.21215 62.5119C9.21051 62.512 9.20887 62.5122 9.2074 62.5124L9.19854 62.5135C9.08845 62.5276 8.96967 62.5413 8.85154 62.5539C8.84925 62.5541 8.84728 62.5544 8.84547 62.5548L8.84219 62.5549C8.84137 62.5551 8.84072 62.5551 8.8399 62.5551L8.71685 62.5672C8.70422 62.5685 8.69158 62.5695 8.67911 62.5708C8.60873 62.5777 8.53786 62.5844 8.47141 62.5899L8.36362 62.5983L8.32294 62.6014C8.27503 62.605 8.22532 62.6081 8.17594 62.6112C8.14821 62.613 8.12081 62.6151 8.09358 62.6168L7.95494 62.6248C7.95412 62.6248 7.9533 62.6248 7.95232 62.6248L7.95117 62.625C7.87111 62.629 7.78612 62.6328 7.70097 62.6358L7.67341 62.6367L7.59515 62.6398C7.59269 62.6398 7.59072 62.6398 7.5881 62.64H7.58695C7.57629 62.6403 7.56447 62.6403 7.55365 62.6405C7.44914 62.6434 7.34512 62.6457 7.24751 62.6469L7.22421 62.647H7.22027H7.21863H7.21551L7.18861 62.6469L7.07901 62.647H7.07179C7.07147 62.647 7.07147 62.647 7.07097 62.647H7.0695C7.06113 62.647 7.05243 62.6469 7.0439 62.6469C6.99304 62.6467 6.94169 62.6467 6.89592 62.6461L6.89116 62.6459C6.891 62.6459 6.89067 62.6459 6.89067 62.6459L6.86786 62.6456L6.76697 62.6439C6.68969 62.6425 6.61422 62.6407 6.54253 62.6384H6.5422C6.54105 62.6384 6.5399 62.6382 6.53892 62.6382L6.48724 62.6364L6.41276 62.6338C6.41095 62.6336 6.40947 62.6336 6.40816 62.6336H6.40669C6.39815 62.6333 6.38847 62.6326 6.37978 62.6323C6.31432 62.6295 6.24984 62.6268 6.18701 62.6235L6.06806 62.6171L6.0633 62.6168C5.97602 62.6115 5.88431 62.6055 5.79326 62.5986L5.75519 62.5958L5.73419 62.5944C5.73386 62.5944 5.73321 62.5942 5.73272 62.5942L5.72943 62.594C5.67201 62.5896 5.61098 62.5837 5.5511 62.5783C5.50615 62.5744 5.4589 62.5708 5.41558 62.5667L5.41279 62.5665C5.41148 62.5664 5.41001 62.5664 5.40869 62.5662L5.36702 62.562L5.31009 62.5562C5.23462 62.5484 5.15997 62.5405 5.09107 62.5327L5.05875 62.5287L4.96654 62.5178C4.94522 62.5152 4.9234 62.5122 4.90174 62.5096C4.85662 62.5039 4.81085 62.4983 4.76721 62.4926L4.71553 62.4855L4.64482 62.476C4.58772 62.468 4.52833 62.4592 4.46878 62.4504C4.45713 62.4487 4.44515 62.4471 4.43367 62.4453L4.34179 62.4315C4.34015 62.4314 4.33851 62.431 4.33671 62.4307L4.33441 62.4304C4.2404 62.4155 4.14098 62.3995 4.04254 62.3824L3.98988 62.373C3.94673 62.3651 3.9049 62.3576 3.86273 62.3497C3.82631 62.343 3.78759 62.3363 3.75314 62.3299L3.74986 62.3294C3.74953 62.3293 3.74887 62.3293 3.74838 62.3293L3.64896 62.3098C3.58579 62.2974 3.52214 62.2849 3.45947 62.272L3.35315 62.2497C3.29311 62.237 3.23142 62.2234 3.15825 62.2074L3.11133 62.1967L3.07622 62.1887C3.06965 62.1872 3.06276 62.1856 3.05653 62.1841C2.99205 62.1694 2.9261 62.1538 2.85293 62.1363L2.84193 62.1337L2.80781 62.1257C2.80732 62.1255 2.80666 62.1254 2.80601 62.1252L2.80223 62.1242C2.72069 62.1044 2.63456 62.0827 2.55089 62.0612L2.29495 61.9932L1.74058 61.8325L1.72762 61.8289C1.72615 61.8285 1.72467 61.8279 1.72336 61.8276L1.71384 61.8248C1.65117 61.8055 1.57719 61.7824 1.50746 61.7598L1.48236 61.7516C1.41411 61.7295 1.35422 61.7099 1.29762 61.6911C1.295 61.6903 1.29221 61.6894 1.28958 61.6885L1.22904 61.668L1.22576 61.6669C0.877295 61.5494 0.492404 61.6484 0.243685 61.918C0.241224 61.9208 0.238435 61.9228 0.236138 61.9254C0.20792 61.957 0.18249 61.9905 0.159193 62.0247C0.156896 62.028 0.154107 62.0311 0.151974 62.0342C0.081099 62.1412 0.0358178 62.2604 0.0138334 62.3839C0.0125209 62.3919 0.00956773 62.3995 0.00858335 62.4075C0.00579429 62.4258 0.00595835 62.4443 0.00431773 62.463C-0.00979165 62.6217 0.0146537 62.7842 0.0848725 62.9347C4.44466 72.3063 12.9049 73.7056 17.5603 73.7056C19.7036 73.7056 21.1531 73.4104 21.1601 73.4089L21.1606 73.4088H21.161L20.4535 74.7264C20.4532 74.7268 20.4527 74.7275 20.4524 74.728L20.4169 74.7946C20.3009 75.0103 20.2775 75.2593 20.3433 75.4881C20.3452 75.4951 20.3475 75.502 20.3498 75.509C20.3726 75.5818 20.4041 75.6524 20.4452 75.7191C20.4637 75.7489 20.4845 75.7769 20.5062 75.8041C20.5142 75.8142 20.5221 75.8239 20.5305 75.8337C20.6008 75.9155 20.6844 75.9834 20.7769 76.0356C20.7879 76.0417 20.7987 76.0477 20.8095 76.0534C20.8988 76.0991 20.9957 76.1299 21.097 76.1456C21.1303 76.1503 21.1636 76.1544 21.198 76.1557C21.219 76.1569 21.24 76.159 21.2612 76.1588C31.3051 75.8864 36.3595 73.0142 38.8307 70.6528C40.8362 68.7361 41.5757 66.836 41.8468 65.7632L42.0005 65.7637L42.1542 65.7632C42.4253 66.8361 43.1649 68.7361 45.1704 70.6528C47.6416 73.0142 52.6959 75.8865 62.7398 76.1588C62.761 76.1591 62.782 76.1569 62.803 76.1557C62.8374 76.1544 62.8709 76.1505 62.904 76.1456C63.0051 76.1299 63.1021 76.0991 63.1915 76.0534C63.2025 76.0477 63.2133 76.0418 63.2241 76.0356C63.3167 75.9836 63.4002 75.9157 63.4705 75.8337C63.4789 75.8239 63.4869 75.8142 63.4948 75.8041C63.5163 75.7771 63.5372 75.7489 63.5559 75.7191C63.5969 75.6525 63.6284 75.582 63.6512 75.509C63.6531 75.502 63.6558 75.4951 63.6577 75.4881C63.7235 75.2593 63.6999 75.0101 63.5841 74.7946L63.5486 74.728C63.5483 74.7275 63.5478 74.7268 63.5475 74.7264L62.8399 73.4088H62.8402L62.841 73.4089C62.8479 73.4104 64.2976 73.7056 66.4409 73.7056C71.0962 73.7056 79.5565 72.3062 83.9163 62.9347C83.9852 62.7843 84.0095 62.6217 83.9956 62.463Z" fill="#945C2B"/>
<path d="M31.0455 73.6712C24.6127 73.6712 19.3976 68.4697 19.3976 62.0535C19.3976 59.485 20.2348 57.1125 21.6497 55.1893C20.9042 55.7615 20.1518 56.4126 19.3991 57.1542C17.8679 58.894 15.9146 60.11 14.3555 60.8879L14.1153 61.0474L14.115 61.0476V61.0478L14.0948 61.0574L13.8333 61.182C13.8313 61.1829 13.8294 61.1836 13.8277 61.1846L13.8223 61.1872C13.746 61.2222 13.6592 61.261 13.5733 61.2988L13.4209 61.3656C13.3122 61.4119 13.1958 61.46 13.0663 61.512L13.0197 61.5312C12.9651 61.5529 12.9082 61.5745 12.8514 61.5964C12.7802 61.6234 12.7098 61.6498 12.6419 61.6747L12.6348 61.6771C12.6343 61.6773 12.6338 61.6774 12.6335 61.6776L12.5443 61.7094L12.4964 61.7264C12.4079 61.7576 12.3203 61.7882 12.2386 61.8157L12.2363 61.8165C12.2348 61.817 12.2334 61.8177 12.2317 61.8182L12.1467 61.846L12.0805 61.8679C12.0787 61.8684 12.0769 61.8691 12.0752 61.8696C12.0081 61.8915 11.9364 61.9139 11.858 61.9381C11.8488 61.9409 11.8395 61.944 11.8309 61.9466L11.8012 61.9555L11.6716 61.9947C11.6057 62.0142 11.5345 62.0338 11.4638 62.0535C11.4429 62.0594 11.4219 62.0656 11.4011 62.0713L11.2951 62.1006L11.2761 62.1058C11.2346 62.117 11.1917 62.1279 11.1488 62.1391C11.0662 62.1603 10.9844 62.1811 10.9074 62.1996L10.8986 62.2016C10.8984 62.2017 10.8984 62.2017 10.8981 62.2017L10.8026 62.2237C10.7648 62.2325 10.7296 62.24 10.693 62.2484C10.6329 62.2621 10.5717 62.2764 10.5151 62.2885L10.5122 62.289C10.5114 62.2891 10.5107 62.2893 10.5099 62.2893L10.364 62.3196C10.3514 62.3222 10.3386 62.3243 10.326 62.3269C10.2577 62.3408 10.1888 62.3546 10.123 62.367L9.97095 62.395C9.88711 62.4099 9.8036 62.424 9.72042 62.4374L9.58753 62.4586C9.58606 62.4588 9.58458 62.459 9.58294 62.4591L9.57933 62.4596C9.48122 62.4747 9.37573 62.4897 9.26991 62.5036L9.24891 62.5066L9.21232 62.5118C9.21068 62.512 9.20904 62.5122 9.20757 62.5123L9.19871 62.5135C9.08862 62.5275 8.96984 62.5413 8.85171 62.5539C8.84942 62.554 8.84745 62.5544 8.84564 62.5547L8.84236 62.5549C8.84154 62.555 8.84089 62.555 8.84007 62.555L8.71702 62.5671C8.70439 62.5684 8.69175 62.5694 8.67928 62.5707C8.6089 62.5776 8.53803 62.5843 8.47158 62.5899L8.36379 62.5982L8.3231 62.6013C8.2752 62.6049 8.22549 62.608 8.1761 62.6112C8.14838 62.613 8.12098 62.6151 8.09375 62.6167L7.95511 62.6247C7.95429 62.6247 7.95347 62.6247 7.95249 62.6247L7.95134 62.6249C7.87128 62.629 7.78629 62.6328 7.70114 62.6357L7.67358 62.6367L7.59532 62.6398C7.59286 62.6398 7.59089 62.6398 7.58827 62.64H7.58712C7.57646 62.6403 7.56464 62.6403 7.55382 62.6404C7.44931 62.6434 7.34529 62.6457 7.24767 62.6468L7.22438 62.647H7.22044H7.2188H7.21568H7.18812L7.07853 62.6472H7.07131C7.07098 62.6472 7.07098 62.6472 7.07049 62.6472H7.06901C7.06064 62.6472 7.05195 62.647 7.04342 62.647C6.99256 62.6468 6.94121 62.6468 6.89543 62.6462L6.89068 62.646C6.89051 62.646 6.89018 62.646 6.89018 62.646L6.86738 62.6457L6.76648 62.644C6.68921 62.6426 6.61374 62.6408 6.54204 62.6385H6.54171C6.54057 62.6385 6.53942 62.6383 6.53843 62.6383L6.48675 62.6365L6.41227 62.6339C6.41046 62.6337 6.40899 62.6337 6.40767 62.6337H6.4062C6.39767 62.6334 6.38799 62.6328 6.37929 62.6324C6.31383 62.6296 6.24935 62.6269 6.18652 62.6236L6.06757 62.6172L6.06282 62.6169C5.97553 62.6116 5.88382 62.6056 5.79277 62.5987L5.75471 62.5959L5.73371 62.5945C5.73338 62.5945 5.73272 62.5943 5.73223 62.5943L5.72895 62.5941C5.67153 62.5897 5.61049 62.5838 5.55061 62.5784C5.50566 62.5745 5.45841 62.5709 5.4151 62.5668L5.41231 62.5666C5.41099 62.5665 5.40952 62.5665 5.40821 62.5663L5.36653 62.5621L5.3096 62.5563C5.23414 62.5485 5.15949 62.5406 5.09058 62.5328L5.05826 62.5288L4.96606 62.5179C4.94473 62.5153 4.92291 62.5123 4.90125 62.5097C4.85614 62.504 4.81036 62.4984 4.76672 62.4927L4.71504 62.4856L4.64433 62.4762C4.58724 62.4681 4.52785 62.4593 4.46829 62.4505C4.45664 62.4488 4.44467 62.4472 4.43318 62.4454L4.34131 62.4316C4.33967 62.4315 4.33803 62.4312 4.33622 62.4308L4.33392 62.4305C4.23992 62.4156 4.14049 62.3996 4.04206 62.3826L3.98939 62.3731C3.94624 62.3652 3.90441 62.3577 3.86224 62.3498C3.82582 62.3431 3.7871 62.3364 3.75265 62.33L3.74937 62.3295C3.74904 62.3294 3.74839 62.3294 3.74789 62.3294L3.64847 62.3099C3.58531 62.2975 3.52165 62.285 3.45898 62.2721L3.35267 62.2498C3.29262 62.2371 3.23093 62.2235 3.15776 62.2075L3.11084 62.1968L3.07573 62.1888C3.06917 62.1873 3.06228 62.1857 3.05604 62.1842C2.99157 62.1697 2.92561 62.154 2.85244 62.1364L2.84145 62.1338L2.80732 62.1258C2.80683 62.1256 2.80617 62.1255 2.80552 62.1253L2.80174 62.1243C2.72021 62.1045 2.63407 62.0828 2.5504 62.0613L2.29446 61.9933L1.7401 61.8326L1.72714 61.829C1.72566 61.8286 1.72418 61.828 1.72287 61.8277L1.71335 61.8249C1.65068 61.8056 1.5767 61.7825 1.50697 61.7599L1.48187 61.7517C1.41362 61.7296 1.35374 61.71 1.29713 61.6912C1.29451 61.6904 1.29172 61.6896 1.28909 61.6886L1.22856 61.6681L1.22527 61.667C0.876806 61.5495 0.491915 61.6485 0.243196 61.9182C0.240735 61.9209 0.237946 61.9229 0.23565 61.9255C0.207431 61.9571 0.182001 61.9906 0.158704 62.0248C0.156408 62.0281 0.153618 62.0312 0.151486 62.0343C0.0806106 62.1414 0.0353294 62.2605 0.0133451 62.384C0.0120326 62.392 0.00907945 62.3996 0.00809507 62.4076C0.00530601 62.4259 0.00547007 62.4444 0.00382945 62.4631C-0.0102799 62.6218 0.0141654 62.7843 0.0843841 62.9348C4.44417 72.3064 12.9044 73.7057 17.5598 73.7057C19.7031 73.7057 21.1526 73.4105 21.1596 73.409L21.1601 73.4089H21.1605L20.453 74.7265C20.4527 74.7269 20.4522 74.7276 20.4519 74.7281L20.4164 74.7947C20.3004 75.0104 20.277 75.2594 20.3428 75.4882C20.3447 75.4952 20.347 75.5021 20.3493 75.5091C20.3721 75.5819 20.4036 75.6525 20.4446 75.7192C20.4632 75.749 20.484 75.777 20.5057 75.8042C20.5137 75.8143 20.5216 75.824 20.53 75.8338C20.6003 75.9156 20.6839 75.9835 20.7764 76.0357C20.7874 76.0418 20.7982 76.0478 20.809 76.0535C20.8983 76.0992 20.9952 76.13 21.0965 76.1457C21.1298 76.1504 21.1631 76.1545 21.1975 76.1558C21.2185 76.157 21.2395 76.1591 21.2607 76.1589C30.4452 75.9097 35.4557 73.4871 38.1358 71.2683C36.1714 72.7741 33.7142 73.6712 31.0455 73.6712Z" fill="#844719"/>
<path d="M83.9802 62.7319C83.9826 62.7203 83.9858 62.7087 83.9876 62.6971C83.9935 62.6604 83.9972 62.6233 83.9985 62.5864C83.9989 62.5846 83.999 62.5825 83.9994 62.5807C84.0005 62.5414 83.9994 62.5018 83.9961 62.4626C83.9943 62.4441 83.9944 62.4254 83.9918 62.4071C83.9915 62.4053 83.991 62.4033 83.9907 62.4017C83.9895 62.3953 83.9874 62.3893 83.9864 62.3827C83.9766 62.3271 83.9602 62.2728 83.9406 62.2196C83.9367 62.2096 83.9334 62.1994 83.929 62.1895C83.9072 62.1355 83.8811 62.0831 83.8483 62.0337C83.846 62.0304 83.8432 62.0273 83.841 62.0242C83.8178 61.9898 83.7923 61.9563 83.7641 61.9249C83.7612 61.9216 83.7575 61.919 83.7544 61.9155C83.6304 61.7817 83.4729 61.69 83.3029 61.6465C83.3011 61.6462 83.2992 61.646 83.2975 61.6455C83.2567 61.6354 83.2152 61.6275 83.1732 61.623C83.1638 61.622 83.1548 61.6226 83.1456 61.6218C83.1106 61.619 83.0757 61.6166 83.0406 61.6179C83.0207 61.6187 83.0009 61.6221 82.9809 61.6243C82.9563 61.6267 82.9317 61.6279 82.9069 61.6323C82.8623 61.6403 82.818 61.6516 82.7743 61.6663L82.7103 61.6878C82.7056 61.6894 82.7002 61.691 82.6951 61.6928C82.6406 61.711 82.583 61.73 82.5176 61.7511L82.4923 61.7593C82.4227 61.7817 82.3487 61.8049 82.2862 61.8242L82.2761 61.8272C82.2747 61.8275 82.2736 61.828 82.2724 61.8283L82.2611 61.8314L81.705 61.9928L81.449 62.0608C81.3655 62.0826 81.2795 62.104 81.1977 62.1238L81.1939 62.1248C81.1931 62.125 81.1926 62.1252 81.1921 62.1253L81.1754 62.1292L81.1471 62.136C81.075 62.1535 81.0097 62.1688 80.9458 62.1832C80.945 62.1834 80.9442 62.1836 80.9435 62.1837C80.9371 62.1852 80.9304 62.1868 80.9237 62.1883L80.8887 62.1962L80.8415 62.2068C80.768 62.223 80.7065 62.2364 80.6464 62.2492L80.5401 62.2714C80.4773 62.2844 80.4138 62.2968 80.3505 62.3092L80.251 62.3287C80.2505 62.3289 80.2499 62.3289 80.2496 62.3289L80.2463 62.3294C80.2256 62.3333 80.2028 62.3374 80.1805 62.3412C80.124 62.3518 80.0678 62.3621 80.0097 62.3722L79.957 62.3817C79.8588 62.3986 79.759 62.415 79.6652 62.4297L79.6629 62.43C79.6611 62.4302 79.6593 62.4305 79.6578 62.4308L79.5659 62.4446C79.5621 62.4451 79.5587 62.4457 79.5549 62.446C79.4867 62.4562 79.4194 62.4662 79.3544 62.4753L79.284 62.4848L79.2324 62.4919C79.1889 62.4976 79.1431 62.5032 79.0978 62.5089C79.0763 62.5117 79.0545 62.5144 79.033 62.5171L78.92 62.5306L78.9087 62.532C78.8398 62.5398 78.7651 62.5477 78.6897 62.5555L78.6327 62.5612L78.591 62.5655C78.5896 62.5657 78.5881 62.5657 78.5869 62.5658L78.5842 62.566C78.5651 62.5678 78.5446 62.5696 78.5246 62.5712C78.4388 62.5792 78.3525 62.5869 78.2705 62.5935L78.2672 62.5936C78.2664 62.5936 78.266 62.5938 78.2657 62.5938L78.2583 62.5943L78.2067 62.5981C78.1154 62.6048 78.0239 62.611 77.9366 62.6162L77.9318 62.6166L77.8129 62.6229C77.7597 62.6257 77.7045 62.6282 77.6492 62.6303C77.6308 62.6311 77.6111 62.6321 77.5932 62.6329H77.5917C77.5903 62.6329 77.5886 62.6331 77.5872 62.6331L77.5127 62.6357L77.461 62.6375C77.4598 62.6375 77.4587 62.6377 77.4577 62.6377H77.4574C77.3858 62.64 77.3102 62.6418 77.2328 62.6432L77.189 62.644L77.1092 62.6455C77.1091 62.6455 77.1087 62.6455 77.1084 62.6455L77.1038 62.6457C77.0759 62.6458 77.0446 62.646 77.0139 62.6462C76.986 62.6463 76.9578 62.6465 76.9304 62.6465H76.9289C76.9286 62.6465 76.9286 62.6465 76.9281 62.6465H76.9209H76.874L76.8065 62.6463L76.7844 62.6465H76.7813H76.7796H76.7755L76.7522 62.6463C76.6684 62.6455 76.5787 62.6434 76.4892 62.6409C76.4643 62.6401 76.4372 62.6401 76.4128 62.6395H76.4116C76.409 62.6393 76.407 62.6393 76.4046 62.6393L76.3434 62.6368L76.2988 62.6352C76.2136 62.6321 76.1286 62.6285 76.0486 62.6244L76.0463 62.6242C76.0459 62.6242 76.0451 62.6242 76.0448 62.6242L75.9062 62.6162C75.8855 62.6149 75.8645 62.6134 75.8437 62.6121C75.7875 62.6084 75.7309 62.6049 75.6765 62.601L75.6358 62.5979L75.528 62.5896C75.4617 62.584 75.3908 62.5773 75.3203 62.5704C75.3077 62.5693 75.2952 62.5681 75.2826 62.5668L75.1595 62.5547C75.158 62.5545 75.1569 62.5545 75.1554 62.5542H75.1539C75.1521 62.554 75.1502 62.5537 75.1484 62.5537C75.0898 62.5473 75.0309 62.541 74.9733 62.5342C74.9144 62.5274 74.8563 62.5203 74.8009 62.5133L74.792 62.5122C74.7904 62.512 74.7884 62.5118 74.7873 62.5117L74.7576 62.5074L74.7297 62.5035C74.6237 62.4894 74.5184 62.4745 74.4203 62.4595L74.4147 62.4585C74.4137 62.4583 74.4129 62.4583 74.4121 62.4582L74.2792 62.4369C74.1961 62.4233 74.1125 62.4094 74.0286 62.3945L73.8765 62.3665C73.8254 62.3569 73.7717 62.3461 73.7184 62.3354C73.691 62.3299 73.6629 62.3246 73.6355 62.3191L73.4897 62.2888C73.4889 62.2886 73.4882 62.2885 73.4874 62.2885L73.4844 62.288C73.4277 62.2759 73.3666 62.2616 73.3066 62.2479C73.27 62.2394 73.2347 62.2322 73.197 62.2232L73.1015 62.2012C73.1005 62.2011 73.0997 62.2008 73.0989 62.2008L73.092 62.1993C73.0785 62.196 73.0635 62.1921 73.0495 62.1886C72.9827 62.1723 72.9166 62.1556 72.851 62.1387C72.851 62.1387 72.851 62.1386 72.8508 62.1386C72.808 62.1274 72.765 62.1165 72.7235 62.1054L72.6728 62.0913L72.5988 62.0708C72.5854 62.0671 72.5719 62.0633 72.5585 62.0594C72.4801 62.0376 72.4015 62.0158 72.3283 61.9941L72.1985 61.9548L72.169 61.946C72.1614 61.9435 72.1531 61.9409 72.1454 61.9384C72.0651 61.9137 71.9926 61.891 71.9244 61.8689L71.9219 61.8681C71.9209 61.8678 71.9199 61.8676 71.9191 61.8671L71.8528 61.8452L71.7679 61.8174C71.7661 61.8169 71.7646 61.8162 71.7633 61.8157L71.761 61.8149C71.6791 61.7874 71.5918 61.7568 71.5032 61.7256L71.4552 61.7085L71.3661 61.6768C71.3651 61.6765 71.3643 61.676 71.3631 61.6756L71.3577 61.6738C71.3372 61.6665 71.3152 61.658 71.294 61.6501C71.2465 61.6324 71.1989 61.6149 71.152 61.5971C71.1505 61.5966 71.1493 61.5961 71.1479 61.5956C71.0906 61.5737 71.0342 61.5521 70.9795 61.5303L70.9329 61.5112C70.8035 61.4593 70.687 61.411 70.5784 61.3647L70.426 61.298C70.3397 61.2602 70.2531 61.2214 70.1769 61.1864L70.1715 61.1838C70.1696 61.1828 70.1678 61.1821 70.1659 61.1811L69.9044 61.0566L69.8841 61.047V61.0468L69.8838 61.0466L69.6436 60.8871C68.0845 60.1092 66.1312 58.8932 64.6 57.1534C61.9623 54.5562 59.3365 53.0587 56.9683 52.2289C56.9524 52.2234 56.9363 52.2178 56.9204 52.2122C56.65 52.1183 56.3827 52.0332 56.1192 51.956C56.0927 51.9481 56.0659 51.9403 56.0393 51.9326C55.9591 51.9097 55.8794 51.8869 55.7998 51.8655C55.7731 51.8583 55.7467 51.8514 55.7199 51.8444C55.581 51.8072 55.443 51.7727 55.306 51.7398C55.2697 51.7311 55.2333 51.7221 55.197 51.7138C55.1298 51.6982 55.0627 51.6832 54.9959 51.6686C54.9495 51.6585 54.9034 51.6488 54.8573 51.639C54.7948 51.6261 54.7324 51.6127 54.6707 51.6004C54.6694 51.6002 54.6681 51.6001 54.667 51.5996C54.5426 51.575 54.4196 51.5521 54.2977 51.531C54.294 51.5305 54.2909 51.5299 54.2875 51.5294C54.2857 51.5292 54.2842 51.5289 54.2822 51.5284C54.1643 51.5079 54.047 51.4891 53.9313 51.4716C53.9228 51.4703 53.9142 51.4692 53.9057 51.4678C53.9016 51.4674 53.8977 51.4667 53.8936 51.4662C53.7861 51.4505 53.6798 51.4354 53.5745 51.4219C53.5541 51.4192 53.5344 51.4174 53.5146 51.4148C53.4162 51.4026 53.3179 51.3911 53.2212 51.381C53.1984 51.3785 53.1763 51.3767 53.1533 51.3744C53.1518 51.3742 53.1507 51.3742 53.1492 51.3741C53.058 51.3648 52.9671 51.3561 52.8775 51.3487C52.8529 51.3468 52.8288 51.345 52.8045 51.3433C52.7945 51.3425 52.7847 51.3418 52.7747 51.341C52.6969 51.3351 52.6193 51.3291 52.543 51.3243C52.5071 51.322 52.4718 51.3206 52.4364 51.3188C52.431 51.3186 52.4257 51.3183 52.4206 51.318C52.3519 51.3142 52.2825 51.3101 52.2152 51.3073C52.1506 51.3047 52.0876 51.3032 52.0241 51.3016C51.9813 51.3001 51.9379 51.2985 51.8963 51.2977C51.7911 51.2957 51.6878 51.2946 51.5857 51.2946C51.4264 51.2946 51.2681 51.2975 51.1112 51.3024C51.0622 51.3039 51.0139 51.3063 50.9654 51.3081C50.8558 51.3124 50.7464 51.3176 50.6382 51.324C50.5853 51.3273 50.5326 51.3307 50.4801 51.3343C50.3712 51.3418 50.263 51.3508 50.1556 51.3607C50.1103 51.3649 50.065 51.3685 50.0201 51.3729C49.8727 51.3878 49.7261 51.4039 49.5814 51.4225C49.5789 51.4228 49.5766 51.423 49.574 51.4235C49.4219 51.443 49.2719 51.4651 49.1228 51.4888C49.0898 51.494 49.0577 51.4998 49.0252 51.5052C48.9107 51.5241 48.797 51.5439 48.6841 51.5652C48.6446 51.5726 48.6049 51.5804 48.5653 51.5881C48.4552 51.6096 48.3463 51.6323 48.2385 51.656C48.2049 51.6634 48.1712 51.6704 48.1379 51.6781C47.9996 51.7092 47.8628 51.7418 47.7281 51.7761C47.7278 51.7763 47.7273 51.7763 47.7271 51.7763C47.3202 53.3667 47.1035 55.033 47.1035 56.7497C47.1035 66.0454 53.4465 73.8626 62.0506 76.1332C62.2783 76.1426 62.5059 76.1516 62.7388 76.158C62.7598 76.1583 62.781 76.156 62.802 76.1548C62.8361 76.1535 62.8699 76.1496 62.9032 76.1447C62.9534 76.1368 63.0022 76.1254 63.0497 76.1102C63.0506 76.11 63.0514 76.1097 63.0522 76.1094C63.0998 76.0941 63.146 76.075 63.1903 76.0524C63.1936 76.0508 63.1967 76.0491 63.2 76.0472C63.2079 76.0431 63.2156 76.039 63.2233 76.0347C63.2686 76.0089 63.3119 75.9794 63.3524 75.9464C63.3539 75.9452 63.3554 75.9439 63.3567 75.9428C63.3971 75.9094 63.435 75.8729 63.4697 75.8326C63.4709 75.8312 63.472 75.8297 63.4735 75.8284C63.4804 75.82 63.4875 75.8117 63.4942 75.803C63.5157 75.776 63.5365 75.7479 63.5552 75.7181C63.5962 75.6515 63.6276 75.5811 63.6504 75.5082C63.6527 75.5011 63.655 75.4941 63.6571 75.4869C63.673 75.4314 63.6835 75.375 63.6889 75.3178C63.6891 75.3146 63.6894 75.3115 63.6897 75.3082C63.7047 75.1329 63.6701 74.9539 63.5838 74.7936L63.5483 74.727C63.548 74.7265 63.5475 74.7258 63.5472 74.7253L62.8396 73.4077H62.8399L62.8407 73.4079C62.8476 73.4094 64.2973 73.7046 66.4406 73.7046C71.0959 73.7046 79.5562 72.3051 83.916 62.9337C83.9342 62.8946 83.9487 62.8545 83.9611 62.8141C83.969 62.7876 83.9746 62.7597 83.9802 62.7319Z" fill="#A06335"/>
<path d="M16.8984 19.4674C12.6984 21.7583 8.80469 26.9673 7.38281 29.2855L13.207 9.24005C16.1875 11.6946 21.0984 17.1764 16.8984 19.4674Z" fill="#FA9F82"/>
<path d="M67.0886 19.4674C71.2886 21.7583 75.1823 26.9673 76.6042 29.2855L70.78 9.24005C67.7995 11.6946 62.8886 17.1764 67.0886 19.4674Z" fill="#FA9F82"/>
<path d="M42.5217 53.6453C42.2591 53.9886 41.741 53.9886 41.4783 53.6453L37.5474 48.5061C37.2178 48.0754 37.5259 47.4546 38.0691 47.4546H45.9309C46.4742 47.4546 46.7823 48.0754 46.4527 48.5061L42.5217 53.6453Z" fill="#EF8969"/>
<path fill-rule="evenodd" clip-rule="evenodd" d="M43.0264 52.9856L45.3802 49.9084C44.0378 50.0243 42.9844 51.1478 42.9844 52.5168C42.9844 52.6768 42.9988 52.8336 43.0264 52.9856Z" fill="#FA9F82"/>
<path d="M41.0726 52.9862L38.7188 49.9091C40.0611 50.0249 41.1146 51.1484 41.1146 52.5174C41.1146 52.6775 41.1001 52.8342 41.0726 52.9862Z" fill="#FA9F82"/>
</svg>
