<?xml version="1.0" standalone="no"?>
<!DOCTYPE svg PUBLIC "-//W3C//DTD SVG 20010904//EN"
 "http://www.w3.org/TR/2001/REC-SVG-20010904/DTD/svg10.dtd">
<svg version="1.0" xmlns="http://www.w3.org/2000/svg"
 width="672.000000pt" height="672.000000pt" viewBox="0 0 672.000000 672.000000"
 preserveAspectRatio="xMidYMid meet">
<metadata>
Created by potrace 1.14, written by Peter Selinger 2001-2017
</metadata>
<g transform="translate(0.000000,672.000000) scale(0.100000,-0.100000)"
fill="#000000" stroke="none">
<path d="M940 6577 c-124 -76 -204 -221 -358 -647 -3 -8 -6 -19 -7 -25 -2 -5
-15 -49 -29 -98 -15 -48 -28 -96 -29 -107 -1 -11 -4 -20 -7 -20 -4 0 -7 -6 -7
-12 0 -7 -10 -51 -23 -98 -12 -47 -24 -93 -26 -103 -2 -10 -5 -26 -8 -35 -3
-9 -7 -28 -10 -42 -3 -14 -17 -79 -31 -145 -15 -66 -29 -131 -31 -145 -6 -34
-11 -63 -28 -150 -8 -41 -17 -93 -21 -115 -4 -22 -9 -49 -10 -60 -2 -11 -6
-36 -9 -55 -3 -19 -8 -44 -10 -55 -2 -11 -9 -56 -16 -100 -6 -44 -13 -91 -16
-105 -2 -14 -6 -43 -9 -65 -3 -22 -7 -53 -10 -70 -9 -65 -28 -216 -40 -315 -2
-19 -4 -37 -6 -40 -1 -3 -1 -9 0 -13 1 -5 -3 -45 -8 -90 -11 -92 -21 -193 -26
-282 -3 -33 -6 -78 -9 -100 -2 -22 -7 -87 -11 -145 -3 -58 -8 -130 -10 -160
-5 -65 -17 -476 -17 -570 -1 -80 12 -332 17 -339 2 -4 6 -31 9 -61 15 -146 75
-366 143 -532 12 -32 23 -59 23 -61 0 -6 -39 -1 -46 6 -4 4 -22 7 -40 7 -18 0
-35 4 -38 9 -5 8 -40 18 -95 28 -53 9 -91 -22 -91 -75 0 -19 82 -184 100 -202
3 -3 27 -39 55 -80 80 -121 254 -287 390 -375 120 -77 324 -161 440 -182 44
-7 90 -28 128 -57 19 -15 37 -26 40 -26 3 0 32 -18 64 -39 47 -31 276 -147
378 -192 113 -49 393 -142 495 -164 8 -2 51 -12 95 -23 70 -18 154 -36 220
-47 11 -2 43 -8 70 -13 28 -5 57 -10 65 -10 8 0 28 -3 45 -7 16 -3 47 -8 70
-10 22 -2 60 -7 85 -10 58 -7 120 -13 250 -22 137 -10 650 -9 765 1 50 4 113
9 140 11 106 9 227 23 255 30 8 2 38 7 65 11 28 3 59 8 70 10 11 2 36 7 55 10
57 11 63 12 115 24 28 6 61 14 75 16 14 3 33 7 42 10 9 3 25 7 35 9 130 30
405 120 520 171 18 7 50 21 71 30 58 25 224 110 281 144 29 16 56 30 61 30 6
0 10 5 10 10 0 6 7 10 15 10 8 0 15 4 15 9 0 5 14 14 30 21 17 7 30 16 30 20
0 11 49 30 130 51 125 32 299 105 379 158 143 96 135 90 228 176 42 39 102
104 135 145 32 41 62 80 67 86 4 5 14 21 21 35 7 13 16 26 20 29 7 5 21 30 70
129 37 75 35 119 -4 141 -28 14 -46 12 -168 -22 -93 -26 -104 -23 -82 22 34
67 74 187 110 325 6 22 25 121 29 145 1 14 6 41 10 60 36 191 36 706 0 1175
-11 155 -15 203 -21 265 -3 36 -7 83 -9 105 -13 146 -27 268 -45 410 -6 44
-13 100 -16 125 -2 25 -7 56 -9 70 -3 14 -7 45 -11 70 -3 25 -21 142 -40 260
-19 118 -37 229 -40 245 -2 17 -7 41 -11 55 -4 14 -7 36 -9 50 -1 14 -3 25 -4
25 -1 0 -4 12 -14 65 -2 14 -5 25 -6 25 -1 0 -3 11 -5 25 -3 20 -27 130 -61
275 -3 11 -9 38 -13 60 -5 22 -21 85 -36 140 -14 55 -28 107 -30 115 -7 31
-116 358 -138 410 -66 164 -142 295 -212 366 -48 49 -77 66 -127 72 -91 10
-240 -103 -367 -280 -33 -45 -65 -88 -70 -94 -5 -7 -21 -34 -36 -62 -15 -28
-30 -52 -33 -54 -8 -3 -21 -28 -107 -198 -79 -156 -135 -278 -135 -294 0 -6
-4 -16 -8 -22 -7 -7 -54 -118 -58 -134 0 -3 -3 -12 -7 -20 -3 -8 -22 -62 -42
-120 -19 -58 -37 -110 -40 -117 -3 -9 -17 -8 -57 3 -29 8 -62 17 -73 19 -42 9
-71 15 -95 20 -14 2 -45 9 -70 15 -48 10 -90 18 -130 25 -14 2 -38 6 -55 9
-16 3 -52 8 -80 12 -27 3 -57 8 -67 9 -32 6 -189 26 -243 30 -22 2 -78 7 -125
11 -47 4 -254 8 -460 8 -336 0 -468 -4 -595 -20 -22 -2 -60 -7 -85 -9 -73 -7
-179 -21 -220 -30 -14 -2 -45 -7 -70 -10 -44 -5 -69 -10 -120 -20 -13 -2 -40
-7 -60 -10 -19 -3 -96 -20 -170 -39 -96 -24 -137 -30 -143 -22 -6 9 -19 50
-33 101 -6 20 -65 181 -74 200 -5 11 -25 58 -43 105 -19 47 -55 128 -79 180
-25 52 -46 100 -48 105 -2 6 -16 32 -32 58 -15 26 -28 50 -28 52 0 12 -145
242 -195 311 -71 97 -197 221 -256 253 -61 33 -134 36 -179 8z"/>
</g>
</svg>
